<svg width="138" height="36" viewBox="0 0 138 36" fill="none" xmlns="http://www.w3.org/2000/svg">
<path d="M-5 4.99988C-5 2.23845 -2.76142 -0.00012207 0 -0.00012207H101.317C104.933 -0.00012207 107.353 3.71874 105.889 7.02451L94.8177 32.0245C94.0166 33.8334 92.2243 34.9999 90.2459 34.9999H-1.90735e-06C-2.76143 34.9999 -5 32.7613 -5 29.9999V4.99988Z" fill="url(#paint0_linear_4_59)"/>
<path d="M112.644 1.60982C113.062 0.633136 114.023 -0.00012207 115.085 -0.00012207C117.006 -0.00012207 118.292 1.97557 117.514 3.7318L104.315 33.5356C103.921 34.4258 103.039 34.9999 102.066 34.9999C100.299 34.9999 99.108 33.1936 99.8038 31.57L112.644 1.60982Z" fill="url(#paint1_linear_4_59)"/>
<path d="M122.311 1.60982C122.729 0.633136 123.69 -0.00012207 124.752 -0.00012207C126.673 -0.00012207 127.959 1.97557 127.181 3.7318L113.982 33.5356C113.588 34.4258 112.706 34.9999 111.732 34.9999C109.966 34.9999 108.775 33.1936 109.471 31.57L122.311 1.60982Z" fill="url(#paint2_linear_4_59)"/>
<path d="M132.477 2.24901C132.896 1.27233 133.856 0.639069 134.918 0.639069C136.839 0.639069 138.125 2.61476 137.347 4.37099L124.148 34.1748C123.754 35.065 122.872 35.6391 121.899 35.6391C120.132 35.6391 118.941 33.8328 119.637 32.2091L132.477 2.24901Z" fill="url(#paint3_linear_4_59)"/>
<defs>
<linearGradient id="paint0_linear_4_59" x1="10.6669" y1="17.6391" x2="97.1669" y2="17.6391" gradientUnits="userSpaceOnUse">
<stop offset="0.17354" stop-color="#300537"/>
<stop offset="1" stop-color="#971F5F"/>
</linearGradient>
<linearGradient id="paint1_linear_4_59" x1="10.6669" y1="17.6391" x2="97.1669" y2="17.6391" gradientUnits="userSpaceOnUse">
<stop offset="0.17354" stop-color="#300537"/>
<stop offset="1" stop-color="#971F5F"/>
</linearGradient>
<linearGradient id="paint2_linear_4_59" x1="10.6669" y1="17.6391" x2="97.1669" y2="17.6391" gradientUnits="userSpaceOnUse">
<stop stop-color="#300537"/>
<stop offset="0.445833" stop-color="#971F5F"/>
<stop offset="0.971875" stop-color="#970050"/>
</linearGradient>
<linearGradient id="paint3_linear_4_59" x1="10.6669" y1="17.6391" x2="97.1669" y2="17.6391" gradientUnits="userSpaceOnUse">
<stop offset="0.17354" stop-color="#300537"/>
<stop offset="1" stop-color="#971F5F"/>
</linearGradient>
</defs>
</svg>
