<svg width="98" height="36" viewBox="0 0 98 36" fill="none" xmlns="http://www.w3.org/2000/svg">
<path d="M-45 5C-45 2.23858 -42.7614 0 -40 0H61.3173C64.9328 0 67.3531 3.71886 65.8891 7.02463L54.8177 32.0246C54.0166 33.8335 52.2243 35 50.2459 35H-40C-42.7614 35 -45 32.7614 -45 30V5Z" fill="url(#paint0_linear_4_171)"/>
<path d="M72.6439 1.60994C73.0625 0.633259 74.0228 0 75.0854 0C77.0062 0 78.292 1.97569 77.5142 3.73192L64.3154 33.5357C63.9212 34.4259 63.0391 35 62.0655 35C60.299 35 59.108 33.1938 59.8038 31.5701L72.6439 1.60994Z" fill="url(#paint1_linear_4_171)"/>
<path d="M82.3108 1.60994C82.7294 0.633259 83.6898 0 84.7523 0C86.6731 0 87.9589 1.97569 87.1812 3.73192L73.9823 33.5357C73.5881 34.4259 72.706 35 71.7324 35C69.9659 35 68.7749 33.1938 69.4708 31.5701L82.3108 1.60994Z" fill="url(#paint2_linear_4_171)"/>
<path d="M92.477 2.24913C92.8955 1.27245 93.8559 0.639191 94.9185 0.639191C96.8392 0.639191 98.125 2.61488 97.3473 4.37111L84.1485 34.1749C83.7542 35.0651 82.8722 35.6392 81.8986 35.6392C80.132 35.6392 78.941 33.833 79.6369 32.2093L92.477 2.24913Z" fill="url(#paint3_linear_4_171)"/>
<defs>
<linearGradient id="paint0_linear_4_171" x1="-29.3331" y1="17.6392" x2="57.1669" y2="17.6392" gradientUnits="userSpaceOnUse">
<stop offset="0.17354" stop-color="#300537"/>
<stop offset="1" stop-color="#971F5F"/>
</linearGradient>
<linearGradient id="paint1_linear_4_171" x1="-29.3331" y1="17.6392" x2="57.1669" y2="17.6392" gradientUnits="userSpaceOnUse">
<stop offset="0.17354" stop-color="#300537"/>
<stop offset="1" stop-color="#971F5F"/>
</linearGradient>
<linearGradient id="paint2_linear_4_171" x1="-29.3331" y1="17.6392" x2="57.1669" y2="17.6392" gradientUnits="userSpaceOnUse">
<stop stop-color="#300537"/>
<stop offset="0.445833" stop-color="#971F5F"/>
<stop offset="0.971875" stop-color="#970050"/>
</linearGradient>
<linearGradient id="paint3_linear_4_171" x1="-29.3331" y1="17.6392" x2="57.1669" y2="17.6392" gradientUnits="userSpaceOnUse">
<stop offset="0.17354" stop-color="#300537"/>
<stop offset="1" stop-color="#971F5F"/>
</linearGradient>
</defs>
</svg>
